<mxfile host="Electron" agent="Mozilla/5.0 (Windows NT 10.0; Win64; x64) AppleWebKit/537.36 (KHTML, like Gecko) draw.io/24.7.17 Chrome/128.0.6613.36 Electron/32.0.1 Safari/537.36" version="24.7.17">
  <diagram name="Página-1" id="vnUVTILuwHiFYwAIPvUU">
    <mxGraphModel dx="2260" dy="743" grid="1" gridSize="10" guides="1" tooltips="1" connect="1" arrows="1" fold="1" page="1" pageScale="1" pageWidth="827" pageHeight="1169" math="0" shadow="0">
      <root>
        <mxCell id="0" />
        <mxCell id="1" parent="0" />
        <mxCell id="L_QO1-ohYbyUATPSXi27-6" style="edgeStyle=orthogonalEdgeStyle;rounded=0;orthogonalLoop=1;jettySize=auto;html=1;" edge="1" parent="1" source="L_QO1-ohYbyUATPSXi27-1" target="L_QO1-ohYbyUATPSXi27-3">
          <mxGeometry relative="1" as="geometry" />
        </mxCell>
        <mxCell id="L_QO1-ohYbyUATPSXi27-1" value="" style="ellipse;whiteSpace=wrap;html=1;" vertex="1" parent="1">
          <mxGeometry x="70" y="40" width="80" height="80" as="geometry" />
        </mxCell>
        <mxCell id="L_QO1-ohYbyUATPSXi27-12" style="edgeStyle=orthogonalEdgeStyle;rounded=0;orthogonalLoop=1;jettySize=auto;html=1;exitX=1;exitY=0.5;exitDx=0;exitDy=0;entryX=0;entryY=0.5;entryDx=0;entryDy=0;" edge="1" parent="1" source="L_QO1-ohYbyUATPSXi27-3" target="L_QO1-ohYbyUATPSXi27-11">
          <mxGeometry relative="1" as="geometry" />
        </mxCell>
        <mxCell id="L_QO1-ohYbyUATPSXi27-3" value="Confirmação Exclusão" style="rhombus;whiteSpace=wrap;html=1;" vertex="1" parent="1">
          <mxGeometry x="560" y="160" width="170" height="80" as="geometry" />
        </mxCell>
        <mxCell id="L_QO1-ohYbyUATPSXi27-4" value="" style="endArrow=none;html=1;rounded=0;" edge="1" parent="1">
          <mxGeometry width="50" height="50" relative="1" as="geometry">
            <mxPoint x="67.5" y="120" as="sourcePoint" />
            <mxPoint x="220" y="120" as="targetPoint" />
          </mxGeometry>
        </mxCell>
        <mxCell id="L_QO1-ohYbyUATPSXi27-5" value="Inicio" style="text;html=1;align=center;verticalAlign=middle;resizable=0;points=[];autosize=1;strokeColor=none;fillColor=none;" vertex="1" parent="1">
          <mxGeometry x="85" y="10" width="50" height="30" as="geometry" />
        </mxCell>
        <mxCell id="L_QO1-ohYbyUATPSXi27-7" value="Não" style="text;html=1;align=center;verticalAlign=middle;resizable=0;points=[];autosize=1;strokeColor=none;fillColor=none;" vertex="1" parent="1">
          <mxGeometry x="560" y="155" width="50" height="30" as="geometry" />
        </mxCell>
        <mxCell id="L_QO1-ohYbyUATPSXi27-10" style="edgeStyle=orthogonalEdgeStyle;rounded=0;orthogonalLoop=1;jettySize=auto;html=1;exitX=1;exitY=0.5;exitDx=0;exitDy=0;entryX=0;entryY=0.5;entryDx=0;entryDy=0;" edge="1" parent="1" source="L_QO1-ohYbyUATPSXi27-8" target="L_QO1-ohYbyUATPSXi27-3">
          <mxGeometry relative="1" as="geometry" />
        </mxCell>
        <mxCell id="L_QO1-ohYbyUATPSXi27-8" value="Socilite exclusao" style="rounded=0;whiteSpace=wrap;html=1;" vertex="1" parent="1">
          <mxGeometry x="390" y="185" width="110" height="30" as="geometry" />
        </mxCell>
        <mxCell id="L_QO1-ohYbyUATPSXi27-15" style="edgeStyle=orthogonalEdgeStyle;rounded=0;orthogonalLoop=1;jettySize=auto;html=1;" edge="1" parent="1" source="L_QO1-ohYbyUATPSXi27-11">
          <mxGeometry relative="1" as="geometry">
            <mxPoint x="825" y="500" as="targetPoint" />
          </mxGeometry>
        </mxCell>
        <mxCell id="L_QO1-ohYbyUATPSXi27-11" value="excluir aluno" style="rounded=0;whiteSpace=wrap;html=1;" vertex="1" parent="1">
          <mxGeometry x="770" y="185" width="110" height="30" as="geometry" />
        </mxCell>
        <mxCell id="L_QO1-ohYbyUATPSXi27-13" value="" style="ellipse;whiteSpace=wrap;html=1;aspect=fixed;" vertex="1" parent="1">
          <mxGeometry x="785" y="505" width="80" height="80" as="geometry" />
        </mxCell>
        <mxCell id="L_QO1-ohYbyUATPSXi27-14" value="" style="ellipse;whiteSpace=wrap;html=1;aspect=fixed;" vertex="1" parent="1">
          <mxGeometry x="805" y="525" width="40" height="40" as="geometry" />
        </mxCell>
        <mxCell id="L_QO1-ohYbyUATPSXi27-16" value="" style="endArrow=classic;html=1;rounded=0;entryX=0.5;entryY=0;entryDx=0;entryDy=0;" edge="1" parent="1" target="L_QO1-ohYbyUATPSXi27-8">
          <mxGeometry width="50" height="50" relative="1" as="geometry">
            <mxPoint x="190" y="120" as="sourcePoint" />
            <mxPoint x="440" y="300" as="targetPoint" />
            <Array as="points">
              <mxPoint x="190" y="160" />
              <mxPoint x="445" y="160" />
            </Array>
          </mxGeometry>
        </mxCell>
        <mxCell id="L_QO1-ohYbyUATPSXi27-22" style="edgeStyle=orthogonalEdgeStyle;rounded=0;orthogonalLoop=1;jettySize=auto;html=1;exitX=0.5;exitY=1;exitDx=0;exitDy=0;entryX=0;entryY=0.5;entryDx=0;entryDy=0;" edge="1" parent="1" source="L_QO1-ohYbyUATPSXi27-17" target="L_QO1-ohYbyUATPSXi27-18">
          <mxGeometry relative="1" as="geometry" />
        </mxCell>
        <mxCell id="L_QO1-ohYbyUATPSXi27-17" value="Solicita a inclusão" style="rounded=0;whiteSpace=wrap;html=1;" vertex="1" parent="1">
          <mxGeometry x="100" y="240" width="110" height="30" as="geometry" />
        </mxCell>
        <mxCell id="L_QO1-ohYbyUATPSXi27-23" style="edgeStyle=orthogonalEdgeStyle;rounded=0;orthogonalLoop=1;jettySize=auto;html=1;exitX=0.5;exitY=1;exitDx=0;exitDy=0;entryX=0;entryY=0.5;entryDx=0;entryDy=0;" edge="1" parent="1" source="L_QO1-ohYbyUATPSXi27-18" target="L_QO1-ohYbyUATPSXi27-19">
          <mxGeometry relative="1" as="geometry" />
        </mxCell>
        <mxCell id="L_QO1-ohYbyUATPSXi27-18" value="Solicita dados aluno" style="rounded=0;whiteSpace=wrap;html=1;" vertex="1" parent="1">
          <mxGeometry x="200" y="300" width="110" height="30" as="geometry" />
        </mxCell>
        <mxCell id="L_QO1-ohYbyUATPSXi27-24" style="edgeStyle=orthogonalEdgeStyle;rounded=0;orthogonalLoop=1;jettySize=auto;html=1;exitX=0.75;exitY=1;exitDx=0;exitDy=0;" edge="1" parent="1" source="L_QO1-ohYbyUATPSXi27-19">
          <mxGeometry relative="1" as="geometry">
            <mxPoint x="440" y="460" as="targetPoint" />
            <Array as="points">
              <mxPoint x="373" y="460" />
            </Array>
          </mxGeometry>
        </mxCell>
        <mxCell id="L_QO1-ohYbyUATPSXi27-19" value="Inserir dados" style="rounded=0;whiteSpace=wrap;html=1;" vertex="1" parent="1">
          <mxGeometry x="290" y="370" width="110" height="30" as="geometry" />
        </mxCell>
        <mxCell id="L_QO1-ohYbyUATPSXi27-20" value="" style="endArrow=none;html=1;rounded=0;" edge="1" parent="1">
          <mxGeometry width="50" height="50" relative="1" as="geometry">
            <mxPoint x="441.25" y="540" as="sourcePoint" />
            <mxPoint x="440.75" y="420" as="targetPoint" />
          </mxGeometry>
        </mxCell>
        <mxCell id="L_QO1-ohYbyUATPSXi27-21" value="" style="endArrow=classic;html=1;rounded=0;entryX=0.447;entryY=0.005;entryDx=0;entryDy=0;entryPerimeter=0;" edge="1" parent="1" target="L_QO1-ohYbyUATPSXi27-17">
          <mxGeometry width="50" height="50" relative="1" as="geometry">
            <mxPoint x="150" y="120" as="sourcePoint" />
            <mxPoint x="200" y="70" as="targetPoint" />
          </mxGeometry>
        </mxCell>
        <mxCell id="L_QO1-ohYbyUATPSXi27-30" style="edgeStyle=orthogonalEdgeStyle;rounded=0;orthogonalLoop=1;jettySize=auto;html=1;entryX=0.5;entryY=0;entryDx=0;entryDy=0;" edge="1" parent="1" source="L_QO1-ohYbyUATPSXi27-27" target="L_QO1-ohYbyUATPSXi27-29">
          <mxGeometry relative="1" as="geometry" />
        </mxCell>
        <mxCell id="L_QO1-ohYbyUATPSXi27-27" value="Salvar" style="rounded=0;whiteSpace=wrap;html=1;" vertex="1" parent="1">
          <mxGeometry x="490" y="460" width="110" height="30" as="geometry" />
        </mxCell>
        <mxCell id="L_QO1-ohYbyUATPSXi27-28" value="" style="endArrow=classic;html=1;rounded=0;entryX=0.007;entryY=0.676;entryDx=0;entryDy=0;entryPerimeter=0;" edge="1" parent="1" target="L_QO1-ohYbyUATPSXi27-27">
          <mxGeometry width="50" height="50" relative="1" as="geometry">
            <mxPoint x="440" y="480" as="sourcePoint" />
            <mxPoint x="490" y="430" as="targetPoint" />
          </mxGeometry>
        </mxCell>
        <mxCell id="L_QO1-ohYbyUATPSXi27-69" style="edgeStyle=orthogonalEdgeStyle;rounded=0;orthogonalLoop=1;jettySize=auto;html=1;entryX=0.5;entryY=1;entryDx=0;entryDy=0;" edge="1" parent="1" source="L_QO1-ohYbyUATPSXi27-29" target="L_QO1-ohYbyUATPSXi27-66">
          <mxGeometry relative="1" as="geometry" />
        </mxCell>
        <mxCell id="L_QO1-ohYbyUATPSXi27-29" value="validados" style="rhombus;whiteSpace=wrap;html=1;" vertex="1" parent="1">
          <mxGeometry x="480" y="560" width="130" height="80" as="geometry" />
        </mxCell>
        <mxCell id="L_QO1-ohYbyUATPSXi27-35" style="edgeStyle=orthogonalEdgeStyle;rounded=0;orthogonalLoop=1;jettySize=auto;html=1;" edge="1" parent="1">
          <mxGeometry relative="1" as="geometry">
            <mxPoint x="827" y="590" as="targetPoint" />
            <mxPoint x="724" y="685" as="sourcePoint" />
          </mxGeometry>
        </mxCell>
        <mxCell id="L_QO1-ohYbyUATPSXi27-32" value="gravar dados" style="rounded=0;whiteSpace=wrap;html=1;" vertex="1" parent="1">
          <mxGeometry x="617" y="670" width="110" height="30" as="geometry" />
        </mxCell>
        <mxCell id="L_QO1-ohYbyUATPSXi27-34" value="" style="endArrow=classic;html=1;rounded=0;exitX=0.5;exitY=1;exitDx=0;exitDy=0;entryX=-0.026;entryY=0.526;entryDx=0;entryDy=0;entryPerimeter=0;" edge="1" parent="1" source="L_QO1-ohYbyUATPSXi27-29" target="L_QO1-ohYbyUATPSXi27-32">
          <mxGeometry width="50" height="50" relative="1" as="geometry">
            <mxPoint x="540" y="640" as="sourcePoint" />
            <mxPoint x="540" y="700" as="targetPoint" />
            <Array as="points">
              <mxPoint x="545" y="686" />
            </Array>
          </mxGeometry>
        </mxCell>
        <mxCell id="L_QO1-ohYbyUATPSXi27-36" value="sim" style="text;html=1;align=center;verticalAlign=middle;resizable=0;points=[];autosize=1;strokeColor=none;fillColor=none;" vertex="1" parent="1">
          <mxGeometry x="715" y="210" width="40" height="30" as="geometry" />
        </mxCell>
        <mxCell id="L_QO1-ohYbyUATPSXi27-38" value="sim" style="text;html=1;align=center;verticalAlign=middle;resizable=0;points=[];autosize=1;strokeColor=none;fillColor=none;" vertex="1" parent="1">
          <mxGeometry x="550" y="650" width="40" height="30" as="geometry" />
        </mxCell>
        <mxCell id="L_QO1-ohYbyUATPSXi27-47" style="edgeStyle=orthogonalEdgeStyle;rounded=0;orthogonalLoop=1;jettySize=auto;html=1;exitX=0.5;exitY=1;exitDx=0;exitDy=0;entryX=0.5;entryY=0;entryDx=0;entryDy=0;" edge="1" parent="1" source="L_QO1-ohYbyUATPSXi27-40" target="L_QO1-ohYbyUATPSXi27-46">
          <mxGeometry relative="1" as="geometry" />
        </mxCell>
        <mxCell id="L_QO1-ohYbyUATPSXi27-40" value="Solicita alteração" style="rounded=0;whiteSpace=wrap;html=1;" vertex="1" parent="1">
          <mxGeometry x="-25" y="240" width="110" height="30" as="geometry" />
        </mxCell>
        <mxCell id="L_QO1-ohYbyUATPSXi27-42" value="" style="endArrow=classic;html=1;rounded=0;entryX=0.447;entryY=0.005;entryDx=0;entryDy=0;entryPerimeter=0;" edge="1" parent="1">
          <mxGeometry width="50" height="50" relative="1" as="geometry">
            <mxPoint x="81" y="120" as="sourcePoint" />
            <mxPoint x="80" y="240" as="targetPoint" />
          </mxGeometry>
        </mxCell>
        <mxCell id="L_QO1-ohYbyUATPSXi27-49" style="edgeStyle=orthogonalEdgeStyle;rounded=0;orthogonalLoop=1;jettySize=auto;html=1;entryX=0.175;entryY=-0.068;entryDx=0;entryDy=0;entryPerimeter=0;" edge="1" parent="1" source="L_QO1-ohYbyUATPSXi27-46" target="L_QO1-ohYbyUATPSXi27-48">
          <mxGeometry relative="1" as="geometry">
            <mxPoint x="30" y="390" as="targetPoint" />
          </mxGeometry>
        </mxCell>
        <mxCell id="L_QO1-ohYbyUATPSXi27-46" value="Informa codigo" style="rounded=0;whiteSpace=wrap;html=1;" vertex="1" parent="1">
          <mxGeometry x="-25" y="320" width="110" height="30" as="geometry" />
        </mxCell>
        <mxCell id="L_QO1-ohYbyUATPSXi27-52" style="edgeStyle=orthogonalEdgeStyle;rounded=0;orthogonalLoop=1;jettySize=auto;html=1;exitX=0.5;exitY=1;exitDx=0;exitDy=0;entryX=0.5;entryY=0;entryDx=0;entryDy=0;" edge="1" parent="1" source="L_QO1-ohYbyUATPSXi27-48" target="L_QO1-ohYbyUATPSXi27-51">
          <mxGeometry relative="1" as="geometry" />
        </mxCell>
        <mxCell id="L_QO1-ohYbyUATPSXi27-48" value="Solicita Busca" style="rounded=0;whiteSpace=wrap;html=1;" vertex="1" parent="1">
          <mxGeometry x="135" y="470" width="110" height="30" as="geometry" />
        </mxCell>
        <mxCell id="L_QO1-ohYbyUATPSXi27-56" style="edgeStyle=orthogonalEdgeStyle;rounded=0;orthogonalLoop=1;jettySize=auto;html=1;entryX=0.5;entryY=0;entryDx=0;entryDy=0;" edge="1" parent="1" source="L_QO1-ohYbyUATPSXi27-51" target="L_QO1-ohYbyUATPSXi27-55">
          <mxGeometry relative="1" as="geometry" />
        </mxCell>
        <mxCell id="L_QO1-ohYbyUATPSXi27-60" style="edgeStyle=orthogonalEdgeStyle;rounded=0;orthogonalLoop=1;jettySize=auto;html=1;" edge="1" parent="1" source="L_QO1-ohYbyUATPSXi27-51">
          <mxGeometry relative="1" as="geometry">
            <mxPoint x="310" y="550" as="targetPoint" />
          </mxGeometry>
        </mxCell>
        <mxCell id="L_QO1-ohYbyUATPSXi27-51" value="Existe?" style="rhombus;whiteSpace=wrap;html=1;" vertex="1" parent="1">
          <mxGeometry x="125" y="530" width="130" height="80" as="geometry" />
        </mxCell>
        <mxCell id="L_QO1-ohYbyUATPSXi27-55" value="Exibe dados" style="rounded=0;whiteSpace=wrap;html=1;" vertex="1" parent="1">
          <mxGeometry x="135" y="650" width="110" height="30" as="geometry" />
        </mxCell>
        <mxCell id="L_QO1-ohYbyUATPSXi27-59" value="" style="endArrow=none;html=1;rounded=0;" edge="1" parent="1">
          <mxGeometry width="50" height="50" relative="1" as="geometry">
            <mxPoint x="310.5" y="640" as="sourcePoint" />
            <mxPoint x="310" y="520" as="targetPoint" />
          </mxGeometry>
        </mxCell>
        <mxCell id="L_QO1-ohYbyUATPSXi27-63" value="" style="endArrow=classic;html=1;rounded=0;" edge="1" parent="1">
          <mxGeometry width="50" height="50" relative="1" as="geometry">
            <mxPoint x="245" y="670" as="sourcePoint" />
            <mxPoint x="310" y="600" as="targetPoint" />
            <Array as="points">
              <mxPoint x="280" y="670" />
              <mxPoint x="280" y="600" />
            </Array>
          </mxGeometry>
        </mxCell>
        <mxCell id="L_QO1-ohYbyUATPSXi27-68" style="edgeStyle=orthogonalEdgeStyle;rounded=0;orthogonalLoop=1;jettySize=auto;html=1;" edge="1" parent="1" source="L_QO1-ohYbyUATPSXi27-66">
          <mxGeometry relative="1" as="geometry">
            <mxPoint x="440" y="500" as="targetPoint" />
            <Array as="points">
              <mxPoint x="395" y="500" />
            </Array>
          </mxGeometry>
        </mxCell>
        <mxCell id="L_QO1-ohYbyUATPSXi27-66" value="editar alunos" style="rounded=0;whiteSpace=wrap;html=1;" vertex="1" parent="1">
          <mxGeometry x="340" y="570" width="110" height="30" as="geometry" />
        </mxCell>
        <mxCell id="L_QO1-ohYbyUATPSXi27-67" value="" style="endArrow=classic;html=1;rounded=0;entryX=0;entryY=0.5;entryDx=0;entryDy=0;" edge="1" parent="1" target="L_QO1-ohYbyUATPSXi27-66">
          <mxGeometry width="50" height="50" relative="1" as="geometry">
            <mxPoint x="310" y="585" as="sourcePoint" />
            <mxPoint x="360" y="535" as="targetPoint" />
          </mxGeometry>
        </mxCell>
        <mxCell id="L_QO1-ohYbyUATPSXi27-72" value="nao" style="text;html=1;align=center;verticalAlign=middle;resizable=0;points=[];autosize=1;strokeColor=none;fillColor=none;" vertex="1" parent="1">
          <mxGeometry x="460" y="610" width="40" height="30" as="geometry" />
        </mxCell>
        <mxCell id="L_QO1-ohYbyUATPSXi27-73" value="nao" style="text;html=1;align=center;verticalAlign=middle;resizable=0;points=[];autosize=1;strokeColor=none;fillColor=none;" vertex="1" parent="1">
          <mxGeometry x="235" y="520" width="40" height="30" as="geometry" />
        </mxCell>
        <mxCell id="L_QO1-ohYbyUATPSXi27-74" value="sim" style="text;html=1;align=center;verticalAlign=middle;resizable=0;points=[];autosize=1;strokeColor=none;fillColor=none;" vertex="1" parent="1">
          <mxGeometry x="190" y="610" width="40" height="30" as="geometry" />
        </mxCell>
      </root>
    </mxGraphModel>
  </diagram>
</mxfile>
